<svg version="1.1" id="Layer_1" xmlns="http://www.w3.org/2000/svg" xmlns:xlink="http://www.w3.org/1999/xlink" x="0px" y="0px"
	 width="100%" viewBox="0 0 512 512" enable-background="new 0 0 512 512" xml:space="preserve">
<path fill="#000000" opacity="0.000000" stroke="none" 
	d="
M335.000000,513.000000 
	C223.360458,513.000000 112.220909,513.000000 1.040681,513.000000 
	C1.040681,342.402100 1.040681,171.804184 1.040681,1.103135 
	C171.556213,1.103135 342.112518,1.103135 512.834412,1.103135 
	C512.834412,171.666534 512.834412,342.333252 512.834412,513.000000 
	C453.804169,513.000000 394.652069,513.000000 335.000000,513.000000 
M159.088287,256.514374 
	C159.400726,256.701385 159.713150,256.888397 160.037735,256.971191 
	C160.037735,256.971191 159.933533,256.959015 160.103195,257.501251 
	C160.393173,257.737762 160.683151,257.974274 161.123764,258.609680 
	C161.296661,258.859680 161.533936,259.003387 162.074738,259.628357 
	C162.705185,260.131836 163.335632,260.635315 164.205978,261.766388 
	C167.524567,265.663361 170.996796,269.444611 174.070618,273.525940 
	C175.026276,274.794800 175.653854,277.147461 175.151169,278.542633 
	C171.799835,287.844391 168.104156,297.022156 164.514954,306.238098 
	C162.294647,311.939148 160.064850,317.636475 157.839310,323.335480 
	C168.335739,317.219055 178.398438,311.098083 187.435364,303.720612 
	C195.616959,297.041382 203.479813,293.524872 213.432556,299.204681 
	C214.702789,299.929565 216.146210,300.387054 217.552750,300.831024 
	C224.601074,303.055634 227.122635,303.118835 225.424683,294.655212 
	C224.971054,292.394135 225.361481,289.966492 224.930954,287.697540 
	C223.550400,280.421631 222.378906,273.753143 230.418060,268.720612 
	C235.309921,265.658325 239.003510,260.645569 243.123535,256.400391 
	C245.538986,253.911560 247.734833,251.209579 250.029465,248.603470 
	C249.733414,248.173401 249.437378,247.743347 249.141327,247.313293 
	C240.457825,246.865585 231.778458,246.283035 223.089386,246.016998 
	C217.178391,245.836014 212.616745,244.289047 210.916702,237.812958 
	C210.086746,234.651413 208.538651,231.668884 207.219009,228.647537 
	C205.075150,223.739120 202.851868,218.865372 200.242599,213.040466 
	C199.017136,215.010925 198.343826,215.870193 197.904037,216.835800 
	C194.079330,225.233582 190.343460,233.672302 186.446121,242.035919 
	C185.915298,243.175064 184.770081,244.596863 183.688324,244.820969 
	C174.478256,246.728958 165.217041,248.390076 155.295059,250.044983 
	C155.503326,251.084564 155.711594,252.124146 156.032593,253.071075 
	C156.032593,253.071075 155.939957,252.958313 156.104141,253.504639 
	C156.393250,253.745117 156.682373,253.985596 157.107330,254.612289 
	C157.268387,254.854828 157.492661,254.999008 158.062332,255.539597 
	C158.387192,255.716965 158.712051,255.894318 159.026062,255.966217 
	C159.026062,255.966217 158.920593,255.977051 159.088287,256.514374 
M220.961502,396.444916 
	C220.642838,396.300323 220.324173,396.155762 219.357300,395.777161 
	C216.501175,393.343414 213.924667,390.434967 210.739975,388.558960 
	C197.745911,380.904510 185.055359,372.456726 171.327621,366.397797 
	C154.967545,359.176971 137.575470,354.564789 119.797348,351.491241 
	C105.094971,348.949402 90.419998,347.347687 75.513466,347.974579 
	C71.186531,348.156555 67.196838,352.643402 67.654259,357.615540 
	C68.054054,361.961426 71.873238,360.669647 74.611305,360.991882 
	C90.353241,362.844604 106.246521,363.882263 121.799500,366.758820 
	C144.908478,371.032867 166.749878,379.382263 187.146240,391.183167 
	C200.345963,398.820312 212.337006,408.054962 222.959396,419.065887 
	C231.113998,427.518646 238.906754,436.209351 243.913681,446.500488 
	C251.350052,437.341827 258.700928,428.288483 266.547729,418.948914 
	C266.723663,418.621490 266.899567,418.294037 266.970123,417.977905 
	C266.970123,417.977905 266.981323,418.083282 267.521820,417.920502 
	C267.708771,417.607147 267.895721,417.293793 267.980652,416.980774 
	C267.980652,416.980774 267.980896,417.082825 268.521057,416.919739 
	C268.708160,416.606567 268.895264,416.293396 268.977234,415.970398 
	C268.977234,415.970398 268.967377,416.075470 269.522369,415.922333 
	C269.759033,415.626862 269.995728,415.331360 270.801300,414.721405 
	C274.281006,411.651886 277.570038,408.327911 281.271515,405.554352 
	C304.431030,388.200592 330.341675,376.770782 358.379059,369.883728 
	C377.583557,365.166382 397.083405,363.068420 416.802032,362.779205 
	C420.727905,362.721588 423.490326,361.601654 424.795410,357.642395 
	C425.707916,354.874146 426.915863,352.203278 428.362244,348.554382 
	C356.568054,350.446045 294.482697,370.834473 249.834167,430.748169 
	C244.856247,424.121002 239.928467,417.560608 234.972366,410.427002 
	C234.653580,410.248535 234.334793,410.070038 233.985825,409.987976 
	C233.985825,409.987976 234.082245,410.018188 233.917114,409.457428 
	C233.628540,409.199768 233.339951,408.942108 232.796021,408.177979 
	C231.952942,407.430328 231.109863,406.682648 229.981812,405.426819 
	C229.645706,405.256866 229.309601,405.086914 228.969223,405.026306 
	C228.969223,405.026306 229.078552,405.030640 228.919785,404.473206 
	C228.627274,404.227112 228.334778,403.981018 227.765305,403.201447 
	C226.596970,402.112427 225.428650,401.023376 223.995361,399.397186 
	C223.682602,399.154114 223.369827,398.911041 222.933685,398.310669 
	C222.783615,398.087402 222.575546,397.955933 222.015549,397.406586 
	C221.675415,397.238922 221.335297,397.071259 221.014099,396.998871 
	C221.014099,396.998871 221.109406,396.979889 220.961502,396.444916 
M249.157410,218.914948 
	C245.158615,219.404205 241.159836,219.893463 235.822266,220.546524 
	C240.832260,226.202469 244.984055,231.010620 249.269272,235.696762 
	C254.688797,241.623276 260.248260,247.422012 265.648132,253.365952 
	C266.168304,253.938492 266.218201,255.180038 266.091888,256.054047 
	C265.667053,258.993713 264.988953,261.896210 264.542450,264.833435 
	C262.989716,275.046783 261.493652,285.268707 259.789154,296.745819 
	C269.446808,292.177216 277.777893,287.896362 286.395905,284.303589 
	C290.660461,282.525757 294.559021,277.872864 300.042236,281.138367 
	C303.286682,283.070587 306.442291,285.151581 309.649658,287.146667 
	C320.124054,293.662048 330.589294,300.192535 341.110107,306.632202 
	C341.919708,307.127716 343.135193,306.960052 344.162018,307.100677 
	C344.089691,306.089294 344.209137,305.018372 343.916473,304.075348 
	C338.930176,288.008911 333.857513,271.969116 328.943146,255.880920 
	C328.602692,254.766464 328.922333,252.935699 329.670837,252.087173 
	C334.379913,246.748901 339.357727,241.648941 344.128326,236.363388 
	C348.601959,231.406845 352.929199,226.318253 357.717224,220.833679 
	C356.234619,220.391510 355.656342,220.150299 355.054565,220.049713 
	C342.921356,218.021515 330.777466,216.054626 318.662018,213.925964 
	C317.420990,213.707932 315.746796,212.807266 315.287628,211.773132 
	C310.609039,201.236069 306.187744,190.585159 301.580170,180.015930 
	C300.452393,177.428925 298.907654,175.023697 297.137756,171.768158 
	C295.883911,173.744720 295.070740,174.732132 294.573151,175.858917 
	C291.388702,183.069901 288.174438,190.270462 285.160828,197.553436 
	C281.389191,206.668304 278.847534,216.957275 265.645050,216.111267 
	C265.490143,216.101334 265.328003,216.204224 264.900391,215.584839 
	C254.914444,202.072540 241.103531,195.075394 224.810715,193.129761 
	C208.589111,191.192612 194.831482,198.213791 182.184830,207.225769 
	C159.902420,223.104141 142.940887,244.000565 127.941124,266.607666 
	C127.150017,267.799988 126.712593,269.226959 126.110512,270.544708 
	C126.557983,270.802246 127.005447,271.059784 127.452911,271.317291 
	C129.901596,268.465668 132.734436,265.859161 134.736008,262.722260 
	C146.835861,243.759186 160.744736,226.631241 180.008545,214.288055 
	C195.345749,204.460800 211.667572,201.276855 229.109634,206.232040 
	C237.002563,208.474365 244.869522,211.656906 249.157410,218.914948 
M188.469116,108.341629 
	C173.814560,110.746765 159.160004,113.151894 143.773499,115.677155 
	C154.898056,128.042770 165.810242,140.172333 176.753387,152.336288 
	C166.402985,176.382706 156.165405,200.167023 145.927826,223.951324 
	C146.421341,224.219162 146.914856,224.486984 147.408371,224.754822 
	C147.902252,224.411118 148.403351,224.077286 148.888962,223.722260 
	C161.260498,214.677414 173.536301,205.497665 186.035522,196.632904 
	C193.658844,191.226257 201.595490,186.256546 209.481705,181.232315 
	C210.334061,180.689270 211.897964,180.759689 212.946350,181.106369 
	C222.334885,184.211014 231.665009,187.492142 241.050369,190.606689 
	C244.217026,191.657547 247.492706,192.379929 251.337280,193.419785 
	C251.127304,190.759247 251.134552,188.951797 250.821793,187.201538 
	C249.022491,177.131668 247.311737,167.040970 245.218292,157.031097 
	C244.364044,152.946472 245.409668,149.896011 248.300140,147.210114 
	C251.189682,144.525055 254.223007,141.979019 256.948273,139.137115 
	C260.017151,135.936905 262.753632,132.420807 265.741150,129.139053 
	C269.533966,124.972664 273.433838,120.903755 278.076599,115.951096 
	C274.880096,115.231171 273.019745,114.712067 271.125183,114.401855 
	C259.562744,112.508713 247.970169,110.786163 236.444565,108.693245 
	C234.248917,108.294540 231.296158,106.998535 230.426529,105.252823 
	C226.905975,98.185509 224.133087,90.749855 220.949249,83.509514 
	C217.826355,76.407761 214.539627,69.378052 211.092911,61.807384 
	C210.123764,63.068954 209.382812,63.737335 209.006744,64.570435 
	C206.298187,70.570549 203.720963,76.630188 200.991882,82.620743 
	C197.119766,91.120300 193.153152,99.576805 188.469116,108.341629 
M276.282532,356.105438 
	C277.008301,355.719513 277.827393,355.445465 278.445251,354.930176 
	C284.122833,350.195282 284.125793,347.937561 278.298859,343.549103 
	C272.048492,338.841705 265.800079,334.121857 259.379700,329.653259 
	C254.121353,325.993408 248.611755,322.694519 242.666794,318.885284 
	C244.195175,317.615967 245.193604,316.534271 246.407211,315.816345 
	C268.268646,302.882843 290.509491,300.143127 312.782349,314.449463 
	C321.995972,320.367554 330.681824,327.152344 339.308868,333.923737 
	C345.837891,339.048401 347.929565,339.652557 354.459503,336.483002 
	C357.618164,334.949799 358.137726,333.202576 355.270630,331.008698 
	C344.179657,322.521820 333.537567,313.322845 321.814606,305.815918 
	C302.870483,293.684845 282.610474,290.421021 261.648346,301.227570 
	C255.880875,304.200867 249.752350,306.835602 244.743027,310.823425 
	C238.850510,315.514374 233.447174,315.229645 226.772003,313.223541 
	C220.662003,311.387329 213.961136,310.036804 207.681168,310.527374 
	C189.688141,311.932831 175.255646,321.767273 161.310211,332.238098 
	C160.103027,333.144531 159.344009,334.647888 158.376801,335.873932 
	C158.696655,336.395233 159.016495,336.916565 159.336349,337.437897 
	C161.525391,336.487640 163.891602,335.813568 165.874146,334.541504 
	C177.191223,327.280151 188.873795,320.921387 202.713318,320.467468 
	C209.931488,320.230713 217.201401,320.505310 224.308228,324.701233 
	C219.402527,330.104797 212.164551,332.558685 210.222473,339.914001 
	C215.652206,336.767670 220.808121,333.284332 225.820709,329.605713 
	C228.856445,327.377838 231.818390,326.936340 235.055038,328.970276 
	C241.109100,332.774719 247.264908,336.427368 253.197418,340.412537 
	C260.771759,345.500458 268.166809,350.855255 276.282532,356.105438 
M362.346069,341.916077 
	C364.231354,339.555695 363.738861,337.217896 360.782135,337.538300 
	C356.956146,337.952911 353.280457,339.754700 348.874817,341.173431 
	C353.944733,347.018097 357.875153,345.105255 362.346069,341.916077 
M150.305832,341.987183 
	C150.868256,342.674744 151.791718,344.027710 151.937988,343.948334 
	C153.646088,343.021484 155.237213,341.879089 156.859283,340.793701 
	C156.496674,340.187439 156.134048,339.581177 155.771423,338.974915 
	C154.072662,339.831390 152.373901,340.687866 150.305832,341.987183 
z"/>
<path fill="#00873C" opacity="1.000000" stroke="none" 
	d="
M188.848022,108.196671 
	C193.153152,99.576805 197.119766,91.120300 200.991882,82.620743 
	C203.720963,76.630188 206.298187,70.570549 209.006744,64.570435 
	C209.382812,63.737335 210.123764,63.068954 211.092911,61.807384 
	C214.539627,69.378052 217.826355,76.407761 220.949249,83.509514 
	C224.133087,90.749855 226.905975,98.185509 230.426529,105.252823 
	C231.296158,106.998535 234.248917,108.294540 236.444565,108.693245 
	C247.970169,110.786163 259.562744,112.508713 271.125183,114.401855 
	C273.019745,114.712067 274.880096,115.231171 278.076599,115.951096 
	C273.433838,120.903755 269.533966,124.972664 265.741150,129.139053 
	C262.753632,132.420807 260.017151,135.936905 256.948273,139.137115 
	C254.223007,141.979019 251.189682,144.525055 248.300140,147.210114 
	C245.409668,149.896011 244.364044,152.946472 245.218292,157.031097 
	C247.311737,167.040970 249.022491,177.131668 250.821793,187.201538 
	C251.134552,188.951797 251.127304,190.759247 251.337280,193.419785 
	C247.492706,192.379929 244.217026,191.657547 241.050369,190.606689 
	C231.665009,187.492142 222.334885,184.211014 212.946350,181.106369 
	C211.897964,180.759689 210.334061,180.689270 209.481705,181.232315 
	C201.595490,186.256546 193.658844,191.226257 186.035522,196.632904 
	C173.536301,205.497665 161.260498,214.677414 148.888962,223.722260 
	C148.403351,224.077286 147.902252,224.411118 147.408371,224.754822 
	C146.914856,224.486984 146.421341,224.219162 145.927826,223.951324 
	C156.165405,200.167023 166.402985,176.382706 176.753387,152.336288 
	C165.810242,140.172333 154.898056,128.042770 143.773499,115.677155 
	C159.160004,113.151894 173.814560,110.746765 188.848022,108.196671 
z"/>
<path fill="#00873C" opacity="1.000000" stroke="none" 
	d="
M265.169220,216.254456 
	C265.328003,216.204224 265.490143,216.101334 265.645050,216.111267 
	C278.847534,216.957275 281.389191,206.668304 285.160828,197.553436 
	C288.174438,190.270462 291.388702,183.069901 294.573151,175.858917 
	C295.070740,174.732132 295.883911,173.744720 297.137756,171.768158 
	C298.907654,175.023697 300.452393,177.428925 301.580170,180.015930 
	C306.187744,190.585159 310.609039,201.236069 315.287628,211.773132 
	C315.746796,212.807266 317.420990,213.707932 318.662018,213.925964 
	C330.777466,216.054626 342.921356,218.021515 355.054565,220.049713 
	C355.656342,220.150299 356.234619,220.391510 357.717224,220.833679 
	C352.929199,226.318253 348.601959,231.406845 344.128326,236.363388 
	C339.357727,241.648941 334.379913,246.748901 329.670837,252.087173 
	C328.922333,252.935699 328.602692,254.766464 328.943146,255.880920 
	C333.857513,271.969116 338.930176,288.008911 343.916473,304.075348 
	C344.209137,305.018372 344.089691,306.089294 344.162018,307.100677 
	C343.135193,306.960052 341.919708,307.127716 341.110107,306.632202 
	C330.589294,300.192535 320.124054,293.662048 309.649658,287.146667 
	C306.442291,285.151581 303.286682,283.070587 300.042236,281.138367 
	C294.559021,277.872864 290.660461,282.525757 286.395905,284.303589 
	C277.777893,287.896362 269.446808,292.177216 259.789154,296.745819 
	C261.493652,285.268707 262.989716,275.046783 264.542450,264.833435 
	C264.988953,261.896210 265.667053,258.993713 266.091888,256.054047 
	C266.218201,255.180038 266.168304,253.938492 265.648132,253.365952 
	C260.248260,247.422012 254.688797,241.623276 249.269272,235.696762 
	C244.984055,231.010620 240.832260,226.202469 235.822266,220.546524 
	C241.159836,219.893463 245.158615,219.404205 250.002869,218.859604 
	C255.621964,217.954330 260.395599,217.104401 265.169220,216.254456 
z"/>
<path fill="#00893D" opacity="1.000000" stroke="none" 
	d="
M235.000702,411.000183 
	C239.928467,417.560608 244.856247,424.121002 249.834167,430.748169 
	C294.482697,370.834473 356.568054,350.446045 428.362244,348.554382 
	C426.915863,352.203278 425.707916,354.874146 424.795410,357.642395 
	C423.490326,361.601654 420.727905,362.721588 416.802032,362.779205 
	C397.083405,363.068420 377.583557,365.166382 358.379059,369.883728 
	C330.341675,376.770782 304.431030,388.200592 281.271515,405.554352 
	C277.570038,408.327911 274.281006,411.651886 270.312439,415.059509 
	C269.538147,415.623566 269.252777,415.849518 268.967377,416.075470 
	C268.967377,416.075470 268.977234,415.970398 268.843262,416.156189 
	C268.466461,416.588898 268.223663,416.835846 267.980896,417.082825 
	C267.980896,417.082825 267.980652,416.980774 267.844849,417.161255 
	C267.466461,417.588928 267.223877,417.836090 266.981323,418.083252 
	C266.981323,418.083282 266.970123,417.977905 266.856384,418.187256 
	C266.512390,418.676086 266.282104,418.955627 266.051819,419.235138 
	C258.700928,428.288483 251.350052,437.341827 243.913681,446.500488 
	C238.906754,436.209351 231.113998,427.518646 222.959396,419.065887 
	C212.337006,408.054962 200.345963,398.820312 187.146240,391.183167 
	C166.749878,379.382263 144.908478,371.032867 121.799500,366.758820 
	C106.246521,363.882263 90.353241,362.844604 74.611305,360.991882 
	C71.873238,360.669647 68.054054,361.961426 67.654259,357.615540 
	C67.196838,352.643402 71.186531,348.156555 75.513466,347.974579 
	C90.419998,347.347687 105.094971,348.949402 119.797348,351.491241 
	C137.575470,354.564789 154.967545,359.176971 171.327621,366.397797 
	C185.055359,372.456726 197.745911,380.904510 210.739975,388.558960 
	C213.924667,390.434967 216.501175,393.343414 219.844711,396.077942 
	C220.572357,396.603516 220.831451,396.803894 221.109406,396.979889 
	C221.109406,396.979889 221.014099,396.998871 221.213242,397.133301 
	C221.711411,397.483887 222.010452,397.700073 222.309479,397.916260 
	C222.575546,397.955933 222.783615,398.087402 223.211014,398.685547 
	C223.745667,399.351746 224.002991,399.643036 224.260315,399.934357 
	C225.428650,401.023376 226.596970,402.112427 228.087082,403.675415 
	C228.632095,404.443146 228.855316,404.736877 229.078552,405.030640 
	C229.078552,405.030640 228.969223,405.026306 229.183594,405.145630 
	C229.687561,405.488312 229.977173,405.711639 230.266785,405.934967 
	C231.109863,406.682648 231.952942,407.430328 233.109253,408.642517 
	C233.642395,409.410797 233.862320,409.714478 234.082245,410.018188 
	C234.082245,410.018188 233.985825,409.987976 234.132629,410.152191 
	C234.473679,410.593048 234.714096,410.820953 235.000702,411.000183 
z"/>
<path fill="#00873C" opacity="1.000000" stroke="none" 
	d="
M155.971161,250.125153 
	C165.217041,248.390076 174.478256,246.728958 183.688324,244.820969 
	C184.770081,244.596863 185.915298,243.175064 186.446121,242.035919 
	C190.343460,233.672302 194.079330,225.233582 197.904037,216.835800 
	C198.343826,215.870193 199.017136,215.010925 200.242599,213.040466 
	C202.851868,218.865372 205.075150,223.739120 207.219009,228.647537 
	C208.538651,231.668884 210.086746,234.651413 210.916702,237.812958 
	C212.616745,244.289047 217.178391,245.836014 223.089386,246.016998 
	C231.778458,246.283035 240.457825,246.865585 249.141327,247.313293 
	C249.437378,247.743347 249.733414,248.173401 250.029465,248.603470 
	C247.734833,251.209579 245.538986,253.911560 243.123535,256.400391 
	C239.003510,260.645569 235.309921,265.658325 230.418060,268.720612 
	C222.378906,273.753143 223.550400,280.421631 224.930954,287.697540 
	C225.361481,289.966492 224.971054,292.394135 225.424683,294.655212 
	C227.122635,303.118835 224.601074,303.055634 217.552750,300.831024 
	C216.146210,300.387054 214.702789,299.929565 213.432556,299.204681 
	C203.479813,293.524872 195.616959,297.041382 187.435364,303.720612 
	C178.398438,311.098083 168.335739,317.219055 157.839310,323.335480 
	C160.064850,317.636475 162.294647,311.939148 164.514954,306.238098 
	C168.104156,297.022156 171.799835,287.844391 175.151169,278.542633 
	C175.653854,277.147461 175.026276,274.794800 174.070618,273.525940 
	C170.996796,269.444611 167.524567,265.663361 163.896332,261.219269 
	C163.003006,260.128357 162.419312,259.584595 161.835602,259.040802 
	C161.533936,259.003387 161.296661,258.859680 160.859543,258.215118 
	C160.374725,257.533386 160.154129,257.246185 159.933533,256.959015 
	C159.933533,256.959015 160.037735,256.971191 159.848297,256.839355 
	C159.412766,256.464050 159.166672,256.220551 158.920593,255.977051 
	C158.920593,255.977051 159.026062,255.966217 158.816467,255.854431 
	C158.331299,255.510056 158.055740,255.277435 157.780167,255.044830 
	C157.492661,254.999008 157.268387,254.854828 156.852127,254.220856 
	C156.377930,253.539047 156.158951,253.248672 155.939957,252.958313 
	C155.939957,252.958313 156.032593,253.071075 155.992065,252.737244 
	C155.958069,251.643997 155.964615,250.884583 155.971161,250.125153 
z"/>
<path fill="#1F1A1B" opacity="1.000000" stroke="none" 
	d="
M275.960815,356.100250 
	C268.166809,350.855255 260.771759,345.500458 253.197418,340.412537 
	C247.264908,336.427368 241.109100,332.774719 235.055038,328.970276 
	C231.818390,326.936340 228.856445,327.377838 225.820709,329.605713 
	C220.808121,333.284332 215.652206,336.767670 210.222473,339.914001 
	C212.164551,332.558685 219.402527,330.104797 224.308228,324.701233 
	C217.201401,320.505310 209.931488,320.230713 202.713318,320.467468 
	C188.873795,320.921387 177.191223,327.280151 165.874146,334.541504 
	C163.891602,335.813568 161.525391,336.487640 159.336349,337.437897 
	C159.016495,336.916565 158.696655,336.395233 158.376801,335.873932 
	C159.344009,334.647888 160.103027,333.144531 161.310211,332.238098 
	C175.255646,321.767273 189.688141,311.932831 207.681168,310.527374 
	C213.961136,310.036804 220.662003,311.387329 226.772003,313.223541 
	C233.447174,315.229645 238.850510,315.514374 244.743027,310.823425 
	C249.752350,306.835602 255.880875,304.200867 261.648346,301.227570 
	C282.610474,290.421021 302.870483,293.684845 321.814606,305.815918 
	C333.537567,313.322845 344.179657,322.521820 355.270630,331.008698 
	C358.137726,333.202576 357.618164,334.949799 354.459503,336.483002 
	C347.929565,339.652557 345.837891,339.048401 339.308868,333.923737 
	C330.681824,327.152344 321.995972,320.367554 312.782349,314.449463 
	C290.509491,300.143127 268.268646,302.882843 246.407211,315.816345 
	C245.193604,316.534271 244.195175,317.615967 242.666794,318.885284 
	C248.611755,322.694519 254.121353,325.993408 259.379700,329.653259 
	C265.800079,334.121857 272.048492,338.841705 278.298859,343.549103 
	C284.125793,347.937561 284.122833,350.195282 278.445251,354.930176 
	C277.827393,355.445465 277.008301,355.719513 275.960815,356.100250 
z"/>
<path fill="#1F1A1B" opacity="1.000000" stroke="none" 
	d="
M265.034790,215.919647 
	C260.395599,217.104401 255.621964,217.954330 250.439255,218.829102 
	C244.869522,211.656906 237.002563,208.474365 229.109634,206.232040 
	C211.667572,201.276855 195.345749,204.460800 180.008545,214.288055 
	C160.744736,226.631241 146.835861,243.759186 134.736008,262.722260 
	C132.734436,265.859161 129.901596,268.465668 127.452911,271.317291 
	C127.005447,271.059784 126.557983,270.802246 126.110512,270.544708 
	C126.712593,269.226959 127.150017,267.799988 127.941124,266.607666 
	C142.940887,244.000565 159.902420,223.104141 182.184830,207.225769 
	C194.831482,198.213791 208.589111,191.192612 224.810715,193.129761 
	C241.103531,195.075394 254.914444,202.072540 265.034790,215.919647 
z"/>
<path fill="#1F1A1B" opacity="1.000000" stroke="none" 
	d="
M362.078186,342.143921 
	C357.875153,345.105255 353.944733,347.018097 348.874817,341.173431 
	C353.280457,339.754700 356.956146,337.952911 360.782135,337.538300 
	C363.738861,337.217896 364.231354,339.555695 362.078186,342.143921 
z"/>
<path fill="#1F1A1B" opacity="1.000000" stroke="none" 
	d="
M150.490479,341.765747 
	C152.373901,340.687866 154.072662,339.831390 155.771423,338.974915 
	C156.134048,339.581177 156.496674,340.187439 156.859283,340.793701 
	C155.237213,341.879089 153.646088,343.021484 151.937988,343.948334 
	C151.791718,344.027710 150.868256,342.674744 150.490479,341.765747 
z"/>
<path fill="#00A249" opacity="1.000000" stroke="none" 
	d="
M155.633118,250.085068 
	C155.964615,250.884583 155.958069,251.643997 155.935684,252.783569 
	C155.711594,252.124146 155.503326,251.084564 155.633118,250.085068 
z"/>
<path fill="#00A249" opacity="1.000000" stroke="none" 
	d="
M161.955170,259.334595 
	C162.419312,259.584595 163.003006,260.128357 163.776398,260.905457 
	C163.335632,260.635315 162.705185,260.131836 161.955170,259.334595 
z"/>
<path fill="#00A249" opacity="1.000000" stroke="none" 
	d="
M266.299774,419.092041 
	C266.282104,418.955627 266.512390,418.676086 266.909088,418.181580 
	C266.899567,418.294037 266.723663,418.621490 266.299774,419.092041 
z"/>
<path fill="#00A249" opacity="1.000000" stroke="none" 
	d="
M160.018372,257.230133 
	C160.154129,257.246185 160.374725,257.533386 160.784225,258.015686 
	C160.683151,257.974274 160.393173,257.737762 160.018372,257.230133 
z"/>
<path fill="#00A249" opacity="1.000000" stroke="none" 
	d="
M267.251556,418.001892 
	C267.223877,417.836090 267.466461,417.588928 267.895874,417.161102 
	C267.895721,417.293793 267.708771,417.607147 267.251556,418.001892 
z"/>
<path fill="#00A249" opacity="1.000000" stroke="none" 
	d="
M268.250977,417.001282 
	C268.223663,416.835846 268.466461,416.588898 268.895813,416.161072 
	C268.895264,416.293396 268.708160,416.606567 268.250977,417.001282 
z"/>
<path fill="#00A249" opacity="1.000000" stroke="none" 
	d="
M269.244873,415.998901 
	C269.252777,415.849518 269.538147,415.623566 270.027954,415.216736 
	C269.995728,415.331360 269.759033,415.626862 269.244873,415.998901 
z"/>
<path fill="#00A249" opacity="1.000000" stroke="none" 
	d="
M234.986542,410.713593 
	C234.714096,410.820953 234.473679,410.593048 234.147736,410.103973 
	C234.334793,410.070038 234.653580,410.248535 234.986542,410.713593 
z"/>
<path fill="#00A249" opacity="1.000000" stroke="none" 
	d="
M233.999680,409.737793 
	C233.862320,409.714478 233.642395,409.410797 233.236923,408.895752 
	C233.339951,408.942108 233.628540,409.199768 233.999680,409.737793 
z"/>
<path fill="#00A249" opacity="1.000000" stroke="none" 
	d="
M230.124298,405.680908 
	C229.977173,405.711639 229.687561,405.488312 229.185730,405.090973 
	C229.309601,405.086914 229.645706,405.256866 230.124298,405.680908 
z"/>
<path fill="#00A249" opacity="1.000000" stroke="none" 
	d="
M228.999176,404.751923 
	C228.855316,404.736877 228.632095,404.443146 228.225555,403.942139 
	C228.334778,403.981018 228.627274,404.227112 228.999176,404.751923 
z"/>
<path fill="#00A249" opacity="1.000000" stroke="none" 
	d="
M224.127838,399.665771 
	C224.002991,399.643036 223.745667,399.351746 223.272705,398.864227 
	C223.369827,398.911041 223.682602,399.154114 224.127838,399.665771 
z"/>
<path fill="#00A249" opacity="1.000000" stroke="none" 
	d="
M222.162506,397.661438 
	C222.010452,397.700073 221.711411,397.483887 221.203766,397.085632 
	C221.335297,397.071259 221.675415,397.238922 222.162506,397.661438 
z"/>
<path fill="#00A249" opacity="1.000000" stroke="none" 
	d="
M221.035461,396.712402 
	C220.831451,396.803894 220.572357,396.603516 220.168823,396.194946 
	C220.324173,396.155762 220.642838,396.300323 221.035461,396.712402 
z"/>
<path fill="#00A249" opacity="1.000000" stroke="none" 
	d="
M156.022049,253.231476 
	C156.158951,253.248672 156.377930,253.539047 156.784210,254.027740 
	C156.682373,253.985596 156.393250,253.745117 156.022049,253.231476 
z"/>
<path fill="#00A249" opacity="1.000000" stroke="none" 
	d="
M157.921249,255.292206 
	C158.055740,255.277435 158.331299,255.510056 158.821899,255.907166 
	C158.712051,255.894318 158.387192,255.716965 157.921249,255.292206 
z"/>
<path fill="#00A249" opacity="1.000000" stroke="none" 
	d="
M159.004440,256.245728 
	C159.166672,256.220551 159.412766,256.464050 159.842224,256.891479 
	C159.713150,256.888397 159.400726,256.701385 159.004440,256.245728 
z"/>
</svg>